<?xml version="1.0" standalone="no"?>
<!DOCTYPE svg PUBLIC "-//W3C//DTD SVG 20010904//EN"
 "http://www.w3.org/TR/2001/REC-SVG-20010904/DTD/svg10.dtd">
<svg version="1.0" xmlns="http://www.w3.org/2000/svg"
 width="569.000000pt" height="546.000000pt" viewBox="0 0 569.000000 546.000000"
 preserveAspectRatio="xMidYMid meet">

<g transform="translate(0.000000,546.000000) scale(0.100000,-0.100000)"
fill="#000000" stroke="none">
<path d="M2100 5354 c-33 -31 -60 -62 -60 -68 0 -13 341 -356 354 -356 5 0 38
28 73 62 l63 63 -157 158 c-87 87 -170 167 -186 178 l-27 20 -60 -57z"/>
<path d="M3264 5238 c-96 -94 -174 -174 -174 -178 0 -9 119 -130 128 -130 12
0 352 344 352 356 0 12 -114 124 -126 124 -3 0 -85 -77 -180 -172z"/>
<path d="M2794 5292 c-6 -4 -16 -16 -22 -28 -29 -55 58 -103 93 -51 31 48 -24
111 -71 79z"/>
<path d="M1915 5180 l-66 -64 183 -183 183 -183 62 62 c35 34 63 67 63 73 0 9
-126 137 -297 299 l-62 59 -66 -63z"/>
<path d="M3446 5046 l-179 -172 68 -68 68 -68 181 181 181 181 -60 60 c-33 33
-64 60 -70 60 -5 -1 -91 -79 -189 -174z"/>
<path d="M1727 5000 l-62 -59 182 -183 183 -183 67 68 68 68 -176 174 c-97 96
-182 175 -189 175 -6 0 -40 -27 -73 -60z"/>
<path d="M3626 4878 l-178 -173 69 -67 68 -68 180 180 180 180 -60 60 c-33 33
-64 60 -70 60 -6 0 -91 -78 -189 -172z"/>
<path d="M1547 4830 l-62 -59 182 -183 183 -183 67 68 68 69 -180 174 c-99 96
-183 174 -188 174 -5 0 -37 -27 -70 -60z"/>
<path d="M3806 4708 l-178 -173 69 -67 68 -68 180 180 180 180 -60 60 c-33 33
-64 60 -71 60 -6 0 -91 -78 -188 -172z"/>
<path d="M2751 4786 c-26 -15 -50 -51 -51 -79 -1 -61 67 -107 127 -86 29 9 63
57 63 88 0 25 -26 64 -51 77 -34 17 -57 17 -88 0z m74 -6 c35 -13 56 -64 43
-103 -14 -38 -60 -59 -100 -45 -66 23 -69 122 -3 148 27 12 30 12 60 0z"/>
<path d="M1369 4663 c-32 -31 -59 -61 -59 -67 0 -14 341 -356 355 -356 6 0 38
29 73 63 l62 63 -179 177 c-98 97 -181 177 -185 177 -4 0 -34 -25 -67 -57z"/>
<path d="M3985 4538 l-176 -171 68 -69 68 -68 177 177 c98 98 178 181 178 185
0 14 -109 118 -124 118 -8 0 -94 -77 -191 -172z"/>
<path d="M4170 4374 l-181 -177 68 -69 68 -68 177 177 c98 98 178 183 178 188
0 10 -75 86 -112 114 -14 10 -40 -12 -198 -165z"/>
<path d="M1184 4489 c-30 -29 -54 -57 -54 -63 0 -6 80 -91 178 -189 l177 -177
65 65 65 65 -175 175 c-96 96 -181 175 -188 175 -7 0 -38 -23 -68 -51z"/>
<path d="M4355 4209 c-96 -95 -175 -175 -175 -180 0 -9 119 -129 128 -129 4 0
87 80 185 178 l178 178 -65 62 c-35 34 -67 62 -70 62 -3 0 -85 -77 -181 -171z"/>
<path d="M997 4310 l-62 -59 182 -183 183 -183 67 68 68 68 -177 174 c-97 96
-182 175 -188 175 -7 0 -40 -27 -73 -60z"/>
<path d="M3017 4292 c-22 -24 -21 -55 1 -75 36 -33 92 -8 92 41 0 47 -61 69
-93 34z"/>
<path d="M4532 4035 l-177 -174 67 -68 68 -68 180 180 180 180 -62 62 c-34 35
-66 63 -71 63 -4 0 -88 -79 -185 -175z"/>
<path d="M817 4140 l-62 -59 182 -183 183 -183 65 65 65 65 -177 177 c-98 98
-182 178 -186 178 -5 0 -37 -27 -70 -60z"/>
<path d="M3216 4039 c-227 -53 -366 -264 -366 -553 0 -112 14 -175 58 -271 84
-178 251 -259 484 -234 116 13 188 49 206 104 7 22 12 56 10 76 l-3 36 -79
-35 c-112 -48 -185 -60 -257 -39 -140 41 -219 181 -219 387 0 141 31 239 100
314 87 94 196 109 347 47 98 -41 118 -37 110 18 -10 81 -67 125 -185 147 -87
15 -149 16 -206 3z"/>
<path d="M4712 3865 l-177 -174 68 -68 67 -68 181 181 180 180 -61 62 c-34 34
-66 62 -72 62 -5 0 -89 -79 -186 -175z"/>
<path d="M641 3975 c-33 -32 -61 -62 -61 -69 0 -6 80 -91 178 -189 l177 -177
68 68 67 67 -158 156 c-86 85 -169 165 -183 177 l-27 23 -61 -56z"/>
<path d="M1796 3864 c-33 -33 -7 -94 41 -94 25 0 53 30 53 57 0 44 -63 69 -94
37z"/>
<path d="M4891 3695 l-176 -174 68 -68 67 -68 181 181 181 181 -61 61 c-34 34
-66 62 -72 62 -7 0 -91 -79 -188 -175z"/>
<path d="M454 3799 c-30 -29 -54 -57 -54 -63 0 -6 80 -91 178 -189 l177 -177
65 65 65 65 -175 175 c-96 96 -181 175 -188 175 -7 0 -38 -23 -68 -51z"/>
<path d="M2053 3439 l6 -334 47 -43 c72 -66 98 -77 184 -77 81 1 124 18 218
88 49 36 75 30 80 -19 4 -39 27 -54 79 -54 l43 0 0 253 c0 138 -3 309 -7 380
l-6 127 -67 0 -67 0 -6 -157 c-4 -87 -7 -206 -7 -264 l0 -107 -42 -34 c-24
-19 -57 -42 -75 -52 -61 -31 -168 -14 -192 32 -15 30 -21 90 -31 336 -5 131
-11 241 -14 243 -2 2 -36 7 -76 10 l-73 6 6 -334z"/>
<path d="M3267 3752 c-33 -36 -8 -92 40 -92 25 0 53 30 53 57 0 46 -62 69 -93
35z"/>
<path d="M5071 3525 l-176 -174 68 -68 67 -68 181 181 182 182 -60 61 c-32 34
-65 61 -72 61 -8 0 -93 -79 -190 -175z"/>
<path d="M266 3620 l-60 -61 182 -182 182 -182 67 68 68 68 -178 175 c-98 96
-183 174 -189 174 -6 0 -38 -27 -72 -60z"/>
<path d="M1502 3533 c-7 -3 -18 -16 -23 -30 -13 -36 12 -73 49 -73 35 0 52 16
52 50 0 43 -39 69 -78 53z"/>
<path d="M5251 3356 l-174 -174 67 -67 68 -68 181 181 182 182 -60 60 c-33 33
-66 60 -74 60 -8 0 -93 -78 -190 -174z"/>
<path d="M90 3435 c-33 -32 -60 -63 -60 -69 0 -14 341 -356 355 -356 6 0 38
28 72 63 l63 63 -163 160 c-227 224 -195 207 -267 139z"/>
<path d="M2334 3365 c-22 -33 -6 -72 32 -81 22 -6 32 -2 50 20 23 26 23 45 1
74 -17 22 -65 14 -83 -13z"/>
<path d="M3255 3295 c-14 -13 -25 -31 -25 -40 0 -21 36 -55 60 -55 25 0 60 34
60 59 0 19 -43 61 -62 61 -5 0 -20 -11 -33 -25z"/>
<path d="M2822 3064 c-28 -19 -29 -57 -2 -84 24 -24 38 -25 68 -4 30 21 28 58
-4 83 -32 25 -33 25 -62 5z"/>
<path d="M1905 2977 c-31 -49 21 -106 73 -78 46 24 28 94 -25 99 -25 2 -35 -2
-48 -21z"/>
<path d="M3827 2808 c-21 -11 -22 -36 -1 -59 15 -17 17 -17 36 1 34 31 4 80
-35 58z"/>
<path d="M4256 2804 c-21 -20 -20 -36 3 -56 18 -15 20 -15 35 1 22 24 20 48
-3 61 -15 7 -23 6 -35 -6z"/>
<path d="M130 1960 l0 -850 85 0 85 0 2 833 3 832 58 3 57 3 0 -833 0 -833 85
0 85 0 2 830 3 830 53 3 52 3 0 -833 0 -833 160 0 160 0 2 830 3 830 123 3
122 3 0 -833 0 -833 85 1 86 1 2 829 2 829 58 3 57 3 0 -836 0 -835 373 0 372
0 0 832 0 833 58 3 57 3 0 -411 c0 -358 2 -410 15 -410 13 0 15 54 15 425 l0
425 -90 0 -90 0 0 -830 0 -829 -239 0 c-131 0 -255 -3 -275 -6 -27 -6 -36 -4
-36 6 0 11 -2 12 -9 1 -5 -9 -25 -12 -62 -10 l-54 3 -3 833 -2 832 -90 0 -90
0 0 -830 0 -830 -55 0 -55 0 0 830 0 830 -155 0 -155 0 0 -830 0 -829 -130 0
-130 0 0 829 0 830 -85 0 -85 0 0 -830 0 -830 -55 0 -55 0 0 830 0 830 -90 0
-90 0 0 -835 0 -835 -55 0 -55 0 0 835 c0 736 -2 835 -15 835 -13 0 -15 -101
-15 -850z"/>
<path d="M3243 2803 c-19 -7 -16 -46 5 -64 16 -14 19 -13 35 7 21 28 21 29 1
48 -16 17 -21 18 -41 9z"/>
<path d="M3382 2798 c-16 -16 -15 -30 5 -54 15 -19 18 -20 35 -5 22 19 24 57
2 65 -22 8 -28 8 -42 -6z"/>
<path d="M3528 2799 c-22 -13 -23 -29 -1 -55 15 -19 18 -20 35 -5 22 19 24 57
2 65 -19 7 -15 8 -36 -5z"/>
<path d="M3672 2798 c-17 -17 -15 -41 6 -59 17 -15 20 -14 35 5 10 11 17 25
17 31 0 14 -21 35 -35 35 -6 0 -16 -5 -23 -12z"/>
<path d="M3962 2798 c-16 -16 -15 -21 6 -45 15 -18 20 -19 36 -8 23 18 18 59
-9 63 -11 1 -26 -3 -33 -10z"/>
<path d="M4101 2791 c-8 -14 -6 -24 8 -40 l18 -20 22 20 c12 12 20 28 17 36
-3 8 -6 17 -6 19 0 13 -51 1 -59 -15z"/>
<path d="M4398 2799 c-22 -13 -23 -29 -1 -55 15 -19 18 -20 35 -5 22 19 24 57
2 65 -19 7 -15 8 -36 -5z"/>
<path d="M4542 2798 c-17 -17 -15 -41 6 -59 16 -13 19 -13 35 1 9 9 17 23 17
31 0 18 -19 39 -35 39 -6 0 -16 -5 -23 -12z"/>
<path d="M4682 2798 c-17 -17 -15 -41 6 -59 16 -13 19 -13 35 1 9 9 17 23 17
31 0 18 -19 39 -35 39 -6 0 -16 -5 -23 -12z"/>
<path d="M4833 2803 c-19 -7 -16 -46 5 -64 16 -14 19 -13 35 7 21 28 21 29 1
48 -16 17 -21 18 -41 9z"/>
<path d="M4977 2803 c-12 -11 -8 -44 7 -58 11 -12 17 -11 35 6 24 23 26 30 9
47 -13 13 -41 16 -51 5z"/>
<path d="M5115 2790 c-5 -15 -1 -27 13 -40 19 -18 20 -18 37 0 24 26 16 54
-17 58 -20 2 -28 -2 -33 -18z"/>
<path d="M5256 2795 c-8 -22 -9 -19 13 -43 18 -21 18 -21 35 -3 10 11 16 28
14 38 -4 24 -53 30 -62 8z"/>
<path d="M5407 2804 c-12 -12 -8 -36 9 -55 15 -17 17 -17 36 1 26 24 20 54
-12 58 -14 2 -29 0 -33 -4z"/>
<path d="M2639 2780 c-67 -19 -106 -70 -129 -169 -14 -58 -18 -600 -5 -640 12
-40 56 -52 155 -45 73 6 90 4 90 -7 1 -8 1 -142 0 -299 -1 -310 -7 -355 -56
-401 -29 -27 -46 -21 -81 30 -25 36 -30 65 -39 219 l-6 112 -34 0 -34 0 0 -92
c0 -124 14 -202 47 -267 47 -92 131 -116 196 -56 70 66 79 115 80 478 l2 309
-35 30 c-35 29 -36 29 -127 22 l-93 -7 0 276 c0 298 7 360 47 407 31 37 65 39
92 4 34 -43 44 -104 50 -306 1 -25 5 -28 37 -28 l37 0 -5 128 c-4 96 -11 140
-27 183 -34 88 -99 136 -162 119z"/>
<path d="M2968 2754 c-32 -17 -72 -81 -87 -140 -7 -26 -13 -299 -17 -762 l-6
-722 35 0 34 0 6 278 c4 152 7 332 7 400 l0 122 90 0 90 0 0 -405 0 -405 33 0
34 0 6 693 c8 731 5 782 -37 867 -40 80 -120 111 -188 74z m106 -79 c45 -49
53 -131 48 -487 l-2 -176 -40 -7 c-22 -4 -63 -4 -90 0 l-50 7 0 272 c0 293 7
345 51 392 29 31 54 30 83 -1z"/>
<path d="M5001 2534 c0 -11 3 -14 6 -6 3 7 2 16 -1 19 -3 4 -6 -2 -5 -13z"/>
<path d="M5141 2534 c0 -11 3 -14 6 -6 3 7 2 16 -1 19 -3 4 -6 -2 -5 -13z"/>
<path d="M5281 2534 c0 -11 3 -14 6 -6 3 7 2 16 -1 19 -3 4 -6 -2 -5 -13z"/>
<path d="M5431 2534 c0 -11 3 -14 6 -6 3 7 2 16 -1 19 -3 4 -6 -2 -5 -13z"/>
<path d="M3841 2494 c0 -11 3 -14 6 -6 3 7 2 16 -1 19 -3 4 -6 -2 -5 -13z"/>
<path d="M3981 2494 c0 -11 3 -14 6 -6 3 7 2 16 -1 19 -3 4 -6 -2 -5 -13z"/>
<path d="M4121 2494 c0 -11 3 -14 6 -6 3 7 2 16 -1 19 -3 4 -6 -2 -5 -13z"/>
<path d="M4271 2494 c0 -11 3 -14 6 -6 3 7 2 16 -1 19 -3 4 -6 -2 -5 -13z"/>
<path d="M5001 2494 c0 -11 3 -14 6 -6 3 7 2 16 -1 19 -3 4 -6 -2 -5 -13z"/>
<path d="M5141 2494 c0 -11 3 -14 6 -6 3 7 2 16 -1 19 -3 4 -6 -2 -5 -13z"/>
<path d="M5281 2494 c0 -11 3 -14 6 -6 3 7 2 16 -1 19 -3 4 -6 -2 -5 -13z"/>
<path d="M5431 2494 c0 -11 3 -14 6 -6 3 7 2 16 -1 19 -3 4 -6 -2 -5 -13z"/>
<path d="M3841 2454 c0 -11 3 -14 6 -6 3 7 2 16 -1 19 -3 4 -6 -2 -5 -13z"/>
<path d="M3981 2454 c0 -11 3 -14 6 -6 3 7 2 16 -1 19 -3 4 -6 -2 -5 -13z"/>
<path d="M4121 2454 c0 -11 3 -14 6 -6 3 7 2 16 -1 19 -3 4 -6 -2 -5 -13z"/>
<path d="M4271 2454 c0 -11 3 -14 6 -6 3 7 2 16 -1 19 -3 4 -6 -2 -5 -13z"/>
<path d="M5001 2454 c0 -11 3 -14 6 -6 3 7 2 16 -1 19 -3 4 -6 -2 -5 -13z"/>
<path d="M5141 2454 c0 -11 3 -14 6 -6 3 7 2 16 -1 19 -3 4 -6 -2 -5 -13z"/>
<path d="M5281 2454 c0 -11 3 -14 6 -6 3 7 2 16 -1 19 -3 4 -6 -2 -5 -13z"/>
<path d="M5431 2454 c0 -11 3 -14 6 -6 3 7 2 16 -1 19 -3 4 -6 -2 -5 -13z"/>
<path d="M3841 2414 c0 -11 3 -14 6 -6 3 7 2 16 -1 19 -3 4 -6 -2 -5 -13z"/>
<path d="M3981 2414 c0 -11 3 -14 6 -6 3 7 2 16 -1 19 -3 4 -6 -2 -5 -13z"/>
<path d="M4121 2414 c0 -11 3 -14 6 -6 3 7 2 16 -1 19 -3 4 -6 -2 -5 -13z"/>
<path d="M4271 2414 c0 -11 3 -14 6 -6 3 7 2 16 -1 19 -3 4 -6 -2 -5 -13z"/>
<path d="M5001 2414 c0 -11 3 -14 6 -6 3 7 2 16 -1 19 -3 4 -6 -2 -5 -13z"/>
<path d="M5141 2414 c0 -11 3 -14 6 -6 3 7 2 16 -1 19 -3 4 -6 -2 -5 -13z"/>
<path d="M5281 2414 c0 -11 3 -14 6 -6 3 7 2 16 -1 19 -3 4 -6 -2 -5 -13z"/>
<path d="M5431 2414 c0 -11 3 -14 6 -6 3 7 2 16 -1 19 -3 4 -6 -2 -5 -13z"/>
<path d="M3841 2374 c0 -11 3 -14 6 -6 3 7 2 16 -1 19 -3 4 -6 -2 -5 -13z"/>
<path d="M3981 2374 c0 -11 3 -14 6 -6 3 7 2 16 -1 19 -3 4 -6 -2 -5 -13z"/>
<path d="M4121 2374 c0 -11 3 -14 6 -6 3 7 2 16 -1 19 -3 4 -6 -2 -5 -13z"/>
<path d="M4271 2374 c0 -11 3 -14 6 -6 3 7 2 16 -1 19 -3 4 -6 -2 -5 -13z"/>
<path d="M3841 2334 c0 -11 3 -14 6 -6 3 7 2 16 -1 19 -3 4 -6 -2 -5 -13z"/>
<path d="M3981 2334 c0 -11 3 -14 6 -6 3 7 2 16 -1 19 -3 4 -6 -2 -5 -13z"/>
<path d="M4121 2334 c0 -11 3 -14 6 -6 3 7 2 16 -1 19 -3 4 -6 -2 -5 -13z"/>
<path d="M4271 2334 c0 -11 3 -14 6 -6 3 7 2 16 -1 19 -3 4 -6 -2 -5 -13z"/>
<path d="M3966 2294 c-11 -10 -14 -24 -10 -38 9 -30 11 -31 42 -20 33 12 36
41 6 61 -19 12 -24 12 -38 -3z"/>
<path d="M4107 2282 c-29 -32 -15 -72 25 -72 27 0 35 47 11 71 -19 19 -20 19
-36 1z"/>
<path d="M4411 2171 c-1 -8 -8 -19 -17 -26 -12 -8 -15 -20 -10 -39 5 -22 12
-27 33 -24 14 2 31 11 37 21 9 15 7 22 -10 35 -11 10 -23 24 -27 32 -4 12 -6
12 -6 1z"/>
<path d="M4543 2139 c-29 -10 -29 -30 -2 -55 15 -14 24 -16 37 -8 43 27 13 81
-35 63z"/>
<path d="M3827 2079 c-20 -18 -23 -65 -4 -72 18 -7 53 9 61 28 4 11 -2 25 -17
39 -21 20 -24 20 -40 5z"/>
<path d="M4250 2045 c-19 -20 -21 -27 -10 -40 15 -18 66 -20 73 -2 6 17 -9 53
-26 60 -8 3 -25 -5 -37 -18z"/>
<path d="M3261 2009 c0 -9 -8 -19 -16 -23 -18 -7 -20 -37 -3 -54 17 -17 45
-15 52 4 8 20 -2 54 -14 54 -5 0 -11 8 -13 18 -4 15 -5 15 -6 1z"/>
<path d="M3670 1845 c-10 -12 -10 -21 -2 -40 15 -32 37 -32 58 0 13 20 14 28
4 40 -16 19 -44 19 -60 0z"/>
<path d="M3383 1734 c-21 -9 -15 -52 8 -64 27 -15 51 5 47 39 -3 26 -27 36
-55 25z"/>
<path d="M3527 1674 c-22 -30 -22 -51 3 -64 29 -16 60 3 53 32 -3 13 -13 30
-22 39 -15 14 -18 14 -34 -7z"/>
<path d="M4701 1647 c-1 -10 -8 -20 -16 -23 -17 -7 -20 -50 -4 -59 5 -4 21 -4
35 -1 27 7 34 49 10 63 -7 4 -16 15 -19 23 -4 12 -6 11 -6 -3z"/>
<path d="M4851 1644 c0 -11 3 -14 6 -6 3 7 2 16 -1 19 -3 4 -6 -2 -5 -13z"/>
<path d="M4851 1604 c0 -11 3 -14 6 -6 3 7 2 16 -1 19 -3 4 -6 -2 -5 -13z"/>
<path d="M4851 1564 c0 -11 3 -14 6 -6 3 7 2 16 -1 19 -3 4 -6 -2 -5 -13z"/>
<path d="M4851 1524 c0 -11 3 -14 6 -6 3 7 2 16 -1 19 -3 4 -6 -2 -5 -13z"/>
<path d="M4851 1484 c0 -11 3 -14 6 -6 3 7 2 16 -1 19 -3 4 -6 -2 -5 -13z"/>
<path d="M4824 1406 c-15 -12 -17 -19 -8 -32 20 -33 44 -41 60 -20 18 25 18
31 -2 50 -19 20 -25 20 -50 2z"/>
<path d="M851 1394 c0 -11 3 -14 6 -6 3 7 2 16 -1 19 -3 4 -6 -2 -5 -13z"/>
<path d="M1141 1394 c0 -11 3 -14 6 -6 3 7 2 16 -1 19 -3 4 -6 -2 -5 -13z"/>
<path d="M1711 1394 c0 -11 3 -14 6 -6 3 7 2 16 -1 19 -3 4 -6 -2 -5 -13z"/>
<path d="M1861 1394 c0 -11 3 -14 6 -6 3 7 2 16 -1 19 -3 4 -6 -2 -5 -13z"/>
<path d="M2001 1394 c0 -11 3 -14 6 -6 3 7 2 16 -1 19 -3 4 -6 -2 -5 -13z"/>
<path d="M2141 1394 c0 -11 3 -14 6 -6 3 7 2 16 -1 19 -3 4 -6 -2 -5 -13z"/>
<path d="M851 1354 c0 -11 3 -14 6 -6 3 7 2 16 -1 19 -3 4 -6 -2 -5 -13z"/>
<path d="M1141 1354 c0 -11 3 -14 6 -6 3 7 2 16 -1 19 -3 4 -6 -2 -5 -13z"/>
<path d="M1711 1354 c0 -11 3 -14 6 -6 3 7 2 16 -1 19 -3 4 -6 -2 -5 -13z"/>
<path d="M1861 1354 c0 -11 3 -14 6 -6 3 7 2 16 -1 19 -3 4 -6 -2 -5 -13z"/>
<path d="M2001 1354 c0 -11 3 -14 6 -6 3 7 2 16 -1 19 -3 4 -6 -2 -5 -13z"/>
<path d="M2141 1354 c0 -11 3 -14 6 -6 3 7 2 16 -1 19 -3 4 -6 -2 -5 -13z"/>
<path d="M5000 1331 c0 -6 -6 -11 -14 -11 -20 0 -26 -24 -12 -51 16 -33 40
-35 55 -5 12 22 11 28 -8 52 -11 15 -21 22 -21 15z"/>
<path d="M851 1314 c0 -11 3 -14 6 -6 3 7 2 16 -1 19 -3 4 -6 -2 -5 -13z"/>
<path d="M1141 1314 c0 -11 3 -14 6 -6 3 7 2 16 -1 19 -3 4 -6 -2 -5 -13z"/>
<path d="M1711 1314 c0 -11 3 -14 6 -6 3 7 2 16 -1 19 -3 4 -6 -2 -5 -13z"/>
<path d="M1861 1314 c0 -11 3 -14 6 -6 3 7 2 16 -1 19 -3 4 -6 -2 -5 -13z"/>
<path d="M2001 1314 c0 -11 3 -14 6 -6 3 7 2 16 -1 19 -3 4 -6 -2 -5 -13z"/>
<path d="M2141 1314 c0 -11 3 -14 6 -6 3 7 2 16 -1 19 -3 4 -6 -2 -5 -13z"/>
<path d="M851 1274 c0 -11 3 -14 6 -6 3 7 2 16 -1 19 -3 4 -6 -2 -5 -13z"/>
<path d="M1141 1274 c0 -11 3 -14 6 -6 3 7 2 16 -1 19 -3 4 -6 -2 -5 -13z"/>
<path d="M1711 1274 c0 -11 3 -14 6 -6 3 7 2 16 -1 19 -3 4 -6 -2 -5 -13z"/>
<path d="M1861 1274 c0 -11 3 -14 6 -6 3 7 2 16 -1 19 -3 4 -6 -2 -5 -13z"/>
<path d="M2001 1274 c0 -11 3 -14 6 -6 3 7 2 16 -1 19 -3 4 -6 -2 -5 -13z"/>
<path d="M2141 1274 c0 -11 3 -14 6 -6 3 7 2 16 -1 19 -3 4 -6 -2 -5 -13z"/>
<path d="M5126 1214 c-24 -24 -20 -53 8 -60 32 -8 46 2 46 31 0 33 -33 51 -54
29z"/>
<path d="M5410 1206 c-19 -24 -8 -61 19 -64 38 -6 54 33 25 62 -19 20 -28 20
-44 2z"/>
<path d="M5261 1176 c-18 -22 -9 -51 17 -54 40 -6 51 4 43 35 -8 32 -41 42
-60 19z"/>
</g>
</svg>
